<?xml version="1.0" encoding="UTF-8"?>
<svg width="561px" height="158px" viewBox="0 0 561 158" version="1.1" xmlns="http://www.w3.org/2000/svg" xmlns:xlink="http://www.w3.org/1999/xlink">
    <title>RMI Main Digital White </title>
    <defs>
        <polygon id="path-1" points="0.06 0.078 559.589001 0.078 559.589001 157.698 0.06 157.698"></polygon>
    </defs>
    <g id="RMI-Main-Digital-White-" stroke="none" stroke-width="1" fill="none" fill-rule="evenodd">
        <path d="M357.178,88.523 C366.358,88.523 373.023,85.599 373.023,76.506 C373.023,67.414 366.358,64.49 357.178,64.49 L332.4,64.49 L332.4,88.523 L357.178,88.523 Z M373.372,136.097 L348.753,107.134 L332.526,107.134 L332.526,134.918 C332.526,135.923 331.711,136.738 330.707,136.738 L309.725,136.738 C308.72,136.738 307.905,135.923 307.905,134.918 L307.905,46.818 C307.905,45.813 308.72,44.998 309.725,44.998 L359.065,44.998 C381.575,44.998 399.054,55.883 399.054,76.004 C399.054,90.717 389.748,100.972 375.916,104.996 L401.075,133.719 C402.106,134.896 401.271,136.738 399.706,136.738 L374.758,136.738 C374.225,136.738 373.717,136.504 373.372,136.097 L373.372,136.097 Z" id="Fill-1" fill="#FFFFFE"></path>
        <path d="M521.947,46.819 L521.924,134.919 C521.923,135.924 521.109,136.738 520.104,136.738 L499.167,136.738 C498.161,136.738 497.346,135.923 497.347,134.917 L497.37,76.814 L467.078,117.922 L465.82,117.922 L435.529,76.814 L435.506,134.919 C435.505,135.924 434.69,136.738 433.686,136.738 L413.502,136.738 C412.496,136.738 411.681,135.923 411.681,134.918 L411.704,46.818 C411.705,45.813 412.52,44.998 413.524,44.998 L437.852,44.998 C438.445,44.998 439.002,45.288 439.342,45.774 L467.078,85.352 L495.065,45.768 C495.406,45.285 495.961,44.998 496.551,44.998 L520.127,44.998 C521.132,44.998 521.947,45.814 521.947,46.819" id="Fill-2" fill="#FFFFFE"></path>
        <g id="Group-8">
            <mask id="mask-2" fill="white">
                <use xlink:href="#path-1"></use>
            </mask>
            <g id="Clip-4"></g>
            <path d="M534.863,134.918 L534.886,46.818 C534.886,45.813 535.701,44.998 536.706,44.998 L557.77,44.998 C558.775,44.998 559.59,45.814 559.589001,46.819 L559.566,134.919 C559.566,135.924 558.752,136.738 557.746,136.738 L536.683,136.738 C535.678,136.738 534.863,135.923 534.863,134.918" id="Fill-3" fill="#FFFFFE" mask="url(#mask-2)"></path>
            <path d="M213.88,35.908 C213.88,36.368 213.74,36.798 213.5,37.148 L138.1,156.688 C138.09,156.698 138.09,156.708 138.08,156.718 C138.08,156.718 138.08,156.728 138.07,156.728 C137.67,157.308 137,157.698 136.24,157.698 L93.84,157.698 C93.08,157.698 92.4,157.318 92,156.728 C91.96,156.668 91.92,156.608 91.88,156.538 C91.71,156.228 91.61,155.868 91.61,155.478 C91.61,155.098 91.71,154.738 91.88,154.418 C91.92,154.348 91.96,154.288 92,154.228 L188.5,1.238 C188.54,1.168 188.58,1.108 188.62,1.048 C189.02,0.458 189.7,0.078 190.46,0.078 C191.21,0.078 191.88,0.458 192.29,1.038 L213.49,34.648 C213.53,34.708 213.57,34.778 213.61,34.848 C213.78,35.158 213.88,35.518 213.88,35.908" id="Fill-5" fill="#59BCB6" mask="url(#mask-2)"></path>
            <path d="M289.31,155.478 C289.31,156.708 288.31,157.698 287.09,157.698 L244.69,157.698 C243.93,157.698 243.25,157.318 242.85,156.728 C242.81,156.668 242.77,156.608 242.73,156.538 L196.92,83.928 C196.88,83.868 196.84,83.808 196.8,83.738 C196.63,83.428 196.53,83.068 196.53,82.678 C196.53,82.298 196.63,81.938 196.8,81.618 C196.84,81.548 196.88,81.488 196.92,81.428 L218,48.008 C218.04,47.938 218.08,47.878 218.12,47.818 C218.52,47.228 219.2,46.848 219.96,46.848 C220.71,46.848 221.38,47.228 221.79,47.808 L288.92,154.218 C288.96,154.278 289,154.348 289.04,154.418 C289.21,154.728 289.31,155.088 289.31,155.478" id="Fill-6" fill="#59BCB6" mask="url(#mask-2)"></path>
            <path d="M128,78.537 C128,78.987 127.87,79.407 127.64,79.747 C127.63,79.757 127.63,79.767 127.62,79.777 L106.44,113.357 C106.43,113.367 106.43,113.377 106.42,113.387 C106.42,113.387 106.42,113.397 106.41,113.397 C106.01,113.977 105.34,114.367 104.58,114.367 C103.82,114.367 103.14,113.987 102.74,113.397 C102.7,113.337 102.66,113.277 102.62,113.207 L88.25,90.447 L46.56,156.527 C46.52,156.597 46.48,156.667 46.44,156.727 C46.04,157.307 45.37,157.697 44.61,157.697 L44.59,157.697 L2.23,157.677 C1,157.677 0,156.687 0,155.457 C0,154.997 0.14,154.567 0.38,154.217 L86.41,17.807 C86.81,17.217 87.48,16.827 88.25,16.827 C89.02,16.827 89.69,17.217 90.09,17.807 L127.61,77.277 C127.65,77.337 127.69,77.407 127.73,77.477 C127.9,77.787 128,78.147 128,78.537" id="Fill-7" fill="#FFFFFE" mask="url(#mask-2)"></path>
        </g>
        <polyline id="Fill-9" fill="#FFFFFE" points="318.013 155.814 318.013 157.692 307.908 157.692 307.908 147.881 317.873 147.881 317.873 149.759 310.136 149.759 310.136 151.777 316.597 151.777 316.597 153.655 310.136 153.655 310.136 155.814 318.013 155.814"></polyline>
        <polyline id="Fill-10" fill="#FFFFFE" points="333.003 147.881 333.003 157.692 331.041 157.692 324.004 150.6 324.004 157.692 321.833 157.692 321.833 147.881 324.214 147.881 330.829 154.608 330.829 147.881 333.003 147.881"></polyline>
        <polyline id="Fill-11" fill="#FFFFFE" points="347.516 155.814 347.516 157.692 337.412 157.692 337.412 147.881 347.377 147.881 347.377 149.759 339.64 149.759 339.64 151.777 346.1 151.777 346.1 153.655 339.64 153.655 339.64 155.814 347.516 155.814"></polyline>
        <path d="M357.563,152.506 C358.739,152.506 359.608,152.226 359.608,151.132 C359.608,150.039 358.739,149.759 357.563,149.759 L353.133,149.759 L353.133,152.506 L357.563,152.506 Z M359.51,157.692 L356.692,154.356 L353.148,154.356 L353.148,157.692 L350.919,157.692 L350.919,147.881 L357.688,147.881 C360.086,147.881 361.893,148.988 361.893,151.118 C361.893,152.786 360.786,153.823 359.16,154.202 L362.188,157.692 L359.51,157.692 L359.51,157.692 Z" id="Fill-12" fill="#FFFFFE"></path>
        <path d="M376.61,155.701 C375.63,157.033 373.696,158 371.032,158 C367.094,158 364.698,156.066 364.698,152.786 C364.698,149.507 367.094,147.573 371.032,147.573 C373.443,147.573 375.152,148.484 376.134,149.437 L374.382,150.712 C373.526,149.871 372.533,149.479 371.047,149.479 C368.482,149.479 366.982,150.6 366.982,152.786 C366.982,154.972 368.524,156.094 371.13,156.094 C372.603,156.094 373.808,155.771 374.508,154.931 L374.508,153.977 L370.809,153.977 L370.809,152.156 L376.61,152.156 L376.61,155.701" id="Fill-13" fill="#FFFFFE"></path>
        <polyline id="Fill-14" fill="#FFFFFE" points="380.126 147.881 383.434 152.478 386.728 147.881 389.264 147.881 384.541 154.342 384.541 157.692 382.298 157.692 382.298 154.342 377.575 147.881 380.126 147.881"></polyline>
        <path d="M388.91,156.697 C388.91,156.037 389.458,155.519 390.241,155.519 C391.014,155.519 391.56,156.037 391.56,156.697 C391.56,157.37 391.014,157.86 390.241,157.86 C389.458,157.86 388.91,157.37 388.91,156.697" id="Fill-15" fill="#FFFFFE"></path>
        <polyline id="Fill-16" fill="#FFFFFE" points="409.923 149.815 405.634 149.815 405.634 157.692 403.391 157.692 403.391 149.815 399.131 149.815 399.131 147.881 409.923 147.881 409.923 149.815"></polyline>
        <path d="M419.322,152.506 C420.499,152.506 421.367,152.226 421.367,151.132 C421.367,150.039 420.499,149.759 419.322,149.759 L414.892,149.759 L414.892,152.506 L419.322,152.506 Z M421.269,157.692 L418.452,154.356 L414.907,154.356 L414.907,157.692 L412.679,157.692 L412.679,147.881 L419.447,147.881 C421.845,147.881 423.652,148.988 423.652,151.118 C423.652,152.786 422.545,153.823 420.919,154.202 L423.947,157.692 L421.269,157.692 L421.269,157.692 Z" id="Fill-17" fill="#FFFFFE"></path>
        <path d="M434.6,153.795 L432.568,149.801 L430.535,153.795 L434.6,153.795 Z M435.539,155.617 L429.611,155.617 L428.559,157.692 L426.163,157.692 L431.361,147.881 L433.815,147.881 L439.015,157.692 L436.59,157.692 L435.539,155.617 L435.539,155.617 Z" id="Fill-18" fill="#FFFFFE"></path>
        <polyline id="Fill-19" fill="#FFFFFE" points="452.835 147.881 452.835 157.692 450.873 157.692 443.837 150.6 443.837 157.692 441.665 157.692 441.665 147.881 444.046 147.881 450.663 154.608 450.663 147.881 452.835 147.881"></polyline>
        <path d="M467.563,154.72 C467.563,156.655 465.727,158 462.251,158 C459.771,158 457.753,157.299 456.253,156.024 L457.541,154.496 C458.748,155.603 460.304,156.122 462.307,156.122 C464.297,156.122 465.306,155.744 465.306,154.931 C465.306,154.118 464.297,153.893 462.041,153.698 C459.238,153.459 456.631,152.842 456.631,150.741 C456.631,148.694 458.817,147.573 461.845,147.573 C463.99,147.573 465.838,148.105 467.086,149.072 L465.854,150.628 C464.773,149.801 463.442,149.465 461.845,149.451 C460.513,149.437 458.887,149.675 458.887,150.572 C458.887,151.413 460.289,151.497 462.237,151.651 C465.363,151.904 467.563,152.562 467.563,154.72" id="Fill-20" fill="#FFFFFE"></path>
        <polyline id="Fill-21" fill="#FFFFFE" points="473.322 149.815 473.322 152.085 479.797 152.085 479.797 154.02 473.322 154.02 473.322 157.692 471.081 157.692 471.081 147.881 481.002 147.881 481.002 149.815 473.322 149.815"></polyline>
        <path d="M493.757,152.786 C493.757,150.684 492.23,149.507 489.805,149.507 C487.38,149.507 485.853,150.684 485.853,152.786 C485.853,154.889 487.367,156.066 489.805,156.066 C492.23,156.066 493.757,154.889 493.757,152.786 Z M483.569,152.786 C483.569,149.507 485.979,147.573 489.805,147.573 C493.632,147.573 496.043,149.507 496.043,152.786 C496.043,156.066 493.632,158 489.805,158 C485.979,158 483.569,156.066 483.569,152.786 L483.569,152.786 Z" id="Fill-22" fill="#FFFFFE"></path>
        <path d="M506.367,152.506 C507.544,152.506 508.412,152.226 508.412,151.132 C508.412,150.039 507.544,149.759 506.367,149.759 L501.937,149.759 L501.937,152.506 L506.367,152.506 Z M508.314,157.692 L505.497,154.356 L501.952,154.356 L501.952,157.692 L499.724,157.692 L499.724,147.881 L506.492,147.881 C508.89,147.881 510.697,148.988 510.697,151.118 C510.697,152.786 509.59,153.823 507.964,154.202 L510.992,157.692 L508.314,157.692 L508.314,157.692 Z" id="Fill-23" fill="#FFFFFE"></path>
        <polyline id="Fill-24" fill="#FFFFFE" points="527.539 147.881 527.539 157.692 525.295 157.692 525.295 150.866 520.994 156.122 520.882 156.122 516.579 150.866 516.579 157.692 514.407 157.692 514.407 147.881 516.845 147.881 520.994 153.067 525.142 147.881 527.539 147.881"></polyline>
        <polyline id="Fill-25" fill="#FFFFFE" points="541.921 155.814 541.921 157.692 531.816 157.692 531.816 147.881 541.781 147.881 541.781 149.759 534.045 149.759 534.045 151.777 540.505 151.777 540.505 153.655 534.045 153.655 534.045 155.814 541.921 155.814"></polyline>
        <path d="M554.601,152.786 C554.601,150.768 553.003,149.787 550.65,149.787 L547.846,149.787 L547.846,155.785 L550.65,155.785 C553.003,155.785 554.601,154.804 554.601,152.786 Z M556.886,152.786 C556.886,155.842 554.518,157.692 550.818,157.692 L545.604,157.692 L545.604,147.881 L550.818,147.881 C554.518,147.881 556.886,149.731 556.886,152.786 L556.886,152.786 Z" id="Fill-26" fill="#FFFFFE"></path>
        <path d="M558.161,156.697 C558.161,156.037 558.708,155.519 559.492,155.519 C560.264,155.519 560.81,156.037 560.81,156.697 C560.81,157.37 560.264,157.86 559.492,157.86 C558.708,157.86 558.161,157.37 558.161,156.697" id="Fill-27" fill="#FFFFFE"></path>
    </g>
</svg>